<svg width="32" height="31" viewBox="0 0 32 31" fill="none" xmlns="http://www.w3.org/2000/svg">
<path d="M13.1695 24.0896C13.4127 24.0896 13.6559 24 13.8479 23.808C14.2191 23.4368 14.2191 22.8224 13.8479 22.4512L6.75674 15.36L13.8479 8.26881C14.2191 7.89761 14.2191 7.28321 13.8479 6.91201C13.4767 6.54081 12.8623 6.54081 12.4911 6.91201L4.72154 14.6816C4.35034 15.0528 4.35034 15.6672 4.72154 16.0384L12.4911 23.808C12.6831 24 12.9263 24.0896 13.1695 24.0896Z" fill="white"/>
<path d="M5.61747 16.32H27.1599C27.6847 16.32 28.1199 15.8848 28.1199 15.36C28.1199 14.8352 27.6847 14.4 27.1599 14.4H5.61747C5.09267 14.4 4.65747 14.8352 4.65747 15.36C4.65747 15.8848 5.09267 16.32 5.61747 16.32Z" fill="white"/>
</svg>
