<svg width="32" height="31" viewBox="0 0 32 31" fill="none" xmlns="http://www.w3.org/2000/svg">
<path d="M19.1102 24.0896C18.867 24.0896 18.6238 24 18.4318 23.808C18.0606 23.4368 18.0606 22.8224 18.4318 22.4512L25.523 15.36L18.4318 8.26881C18.0606 7.89761 18.0606 7.28321 18.4318 6.91201C18.803 6.54081 19.4174 6.54081 19.7886 6.91201L27.5582 14.6816C27.9294 15.0528 27.9294 15.6672 27.5582 16.0384L19.7886 23.808C19.5966 24 19.3534 24.0896 19.1102 24.0896Z" fill="white"/>
<path d="M26.6623 16.32H5.11991C4.59511 16.32 4.15991 15.8848 4.15991 15.36C4.15991 14.8352 4.59511 14.4 5.11991 14.4H26.6623C27.1871 14.4 27.6223 14.8352 27.6223 15.36C27.6223 15.8848 27.1871 16.32 26.6623 16.32Z" fill="white"/>
</svg>
