<svg width="32" height="32" viewBox="0 0 32 32" fill="none" xmlns="http://www.w3.org/2000/svg">
<path d="M2.66669 16H12C14.2667 16 16 17.7333 16 20C16 22.2667 14.2667 24 12 24H4.00002C3.20002 24 2.66669 23.4667 2.66669 22.6667V9.33333C2.66669 8.53333 3.20002 8 4.00002 8H10.6667C12.9334 8 14.6667 9.73333 14.6667 12C14.6667 14.2667 12.9334 16 10.6667 16H2.66669Z" stroke="white" stroke-width="2" stroke-miterlimit="10"/>
<path d="M18.6667 18.6667H29.3334C29.3334 15.7334 26.9334 13.3334 24 13.3334C21.0667 13.3334 18.6667 15.7334 18.6667 18.6667ZM18.6667 18.6667C18.6667 21.6 21.0667 24 24 24H26.2667" stroke="white" stroke-width="2" stroke-miterlimit="10" stroke-linecap="round" stroke-linejoin="round"/>
<path d="M26 10H22" stroke="white" stroke-width="2" stroke-miterlimit="10" stroke-linecap="round" stroke-linejoin="round"/>
</svg>
