<svg width="24" height="24" viewBox="0 0 24 24" fill="none" xmlns="http://www.w3.org/2000/svg">
<path fill-rule="evenodd" clip-rule="evenodd" d="M18.0338 8.6687C18.7614 7.95553 18.773 6.78758 18.0599 6.06C17.3467 5.33243 16.1788 5.32075 15.4512 6.03392L12.026 9.39131L8.66857 5.96609C7.9554 5.23851 6.78745 5.22684 6.05987 5.94C5.33229 6.65317 5.32061 7.82112 6.03378 8.5487L9.39118 11.9739L5.96596 15.3313C5.23839 16.0445 5.22671 17.2124 5.93987 17.94C6.65304 18.6676 7.82099 18.6793 8.54857 17.9661L11.9738 14.6087L15.3312 18.0339C16.0443 18.7615 17.2123 18.7732 17.9399 18.06C18.6674 17.3468 18.6791 16.1789 17.966 15.4513L14.6086 12.0261L18.0338 8.6687Z" fill="white"/>
</svg>
