<svg width="32" height="32" viewBox="0 0 32 32" fill="none" xmlns="http://www.w3.org/2000/svg">
<path d="M11.9998 29.3333H19.9998C26.6665 29.3333 29.3332 26.6667 29.3332 20V12C29.3332 5.33333 26.6665 2.66667 19.9998 2.66667H11.9998C5.33317 2.66667 2.6665 5.33333 2.6665 12V20C2.6665 26.6667 5.33317 29.3333 11.9998 29.3333Z" stroke="white" stroke-width="2" stroke-linecap="round" stroke-linejoin="round"/>
<mask id="path-2-inside-1_133_6243" fill="white">
<path d="M12.2027 22.6667H8.93867V11.6587H12.2027V22.6667ZM10.56 10.272C9.38667 10.272 8.72533 9.568 8.72533 8.62933C8.72533 7.69067 9.38667 6.98667 10.56 6.98667C11.7547 6.98667 12.416 7.69067 12.416 8.62933C12.416 9.568 11.7547 10.272 10.56 10.272ZM24.2392 22.6667H20.9752V16.032C20.9752 14.752 20.5058 14.0693 19.3965 14.0693C18.1592 14.0693 17.3485 14.944 17.3485 16.5227V22.6667H14.0845V11.6587H17.1778V13.3227C17.7538 12.256 18.6925 11.4453 20.4418 11.4453C22.9592 11.4453 24.2392 12.7253 24.2392 15.392V22.6667Z"/>
</mask>
<path d="M12.2027 22.6667H8.93867V11.6587H12.2027V22.6667ZM10.56 10.272C9.38667 10.272 8.72533 9.568 8.72533 8.62933C8.72533 7.69067 9.38667 6.98667 10.56 6.98667C11.7547 6.98667 12.416 7.69067 12.416 8.62933C12.416 9.568 11.7547 10.272 10.56 10.272ZM24.2392 22.6667H20.9752V16.032C20.9752 14.752 20.5058 14.0693 19.3965 14.0693C18.1592 14.0693 17.3485 14.944 17.3485 16.5227V22.6667H14.0845V11.6587H17.1778V13.3227C17.7538 12.256 18.6925 11.4453 20.4418 11.4453C22.9592 11.4453 24.2392 12.7253 24.2392 15.392V22.6667Z" fill="white"/>
<path d="M12.2027 22.6667V24H13.536V22.6667H12.2027ZM8.93867 22.6667H7.60533V24H8.93867V22.6667ZM8.93867 11.6587V10.3253H7.60533V11.6587H8.93867ZM12.2027 11.6587H13.536V10.3253H12.2027V11.6587ZM12.2027 21.3333H8.93867V24H12.2027V21.3333ZM10.272 22.6667V11.6587H7.60533V22.6667H10.272ZM8.93867 12.992H12.2027V10.3253H8.93867V12.992ZM10.8693 11.6587V22.6667H13.536V11.6587H10.8693ZM10.56 8.93867C10.2411 8.93867 10.133 8.84728 10.116 8.83125C10.1032 8.81921 10.0587 8.77586 10.0587 8.62933H7.392C7.392 9.42147 7.67817 10.1995 8.28937 10.7741C8.89631 11.3447 9.70556 11.6053 10.56 11.6053V8.93867ZM10.0587 8.62933C10.0587 8.48281 10.1032 8.43946 10.116 8.42742C10.133 8.41139 10.2411 8.32 10.56 8.32V5.65333C9.70556 5.65333 8.89631 5.91395 8.28937 6.48458C7.67817 7.05921 7.392 7.83719 7.392 8.62933H10.0587ZM10.56 8.32C10.8956 8.32 11.0093 8.41497 11.0268 8.43129C11.0387 8.44238 11.0827 8.48336 11.0827 8.62933H13.7493C13.7493 7.83664 13.4626 7.05629 12.8452 6.48071C12.2333 5.91036 11.419 5.65333 10.56 5.65333V8.32ZM11.0827 8.62933C11.0827 8.77531 11.0387 8.81629 11.0268 8.82738C11.0093 8.84369 10.8956 8.93867 10.56 8.93867V11.6053C11.419 11.6053 12.2333 11.3483 12.8452 10.778C13.4626 10.2024 13.7493 9.42202 13.7493 8.62933H11.0827ZM24.2392 22.6667V24H25.5725V22.6667H24.2392ZM20.9752 22.6667H19.6418V24H20.9752V22.6667ZM17.3485 22.6667V24H18.6818V22.6667H17.3485ZM14.0845 22.6667H12.7512V24H14.0845V22.6667ZM14.0845 11.6587V10.3253H12.7512V11.6587H14.0845ZM17.1778 11.6587H18.5112V10.3253H17.1778V11.6587ZM17.1778 13.3227H15.8445L18.351 13.9562L17.1778 13.3227ZM24.2392 21.3333H20.9752V24H24.2392V21.3333ZM22.3085 22.6667V16.032H19.6418V22.6667H22.3085ZM22.3085 16.032C22.3085 15.2715 22.1769 14.4271 21.6561 13.7544C21.0811 13.0117 20.2413 12.736 19.3965 12.736V15.4027C19.5402 15.4027 19.5943 15.4251 19.5949 15.4253C19.5951 15.4254 19.5928 15.4244 19.5885 15.422C19.5843 15.4195 19.579 15.4161 19.5732 15.4117C19.5606 15.4021 19.5519 15.3925 19.5475 15.3869C19.5391 15.376 19.5644 15.4029 19.5914 15.5104C19.619 15.6202 19.6418 15.7885 19.6418 16.032H22.3085ZM19.3965 12.736C18.444 12.736 17.5414 13.0851 16.8971 13.8352C16.2734 14.5612 16.0152 15.5178 16.0152 16.5227H18.6818C18.6818 15.9489 18.8289 15.6788 18.9199 15.5728C18.9902 15.4909 19.1116 15.4027 19.3965 15.4027V12.736ZM16.0152 16.5227V22.6667H18.6818V16.5227H16.0152ZM17.3485 21.3333H14.0845V24H17.3485V21.3333ZM15.4178 22.6667V11.6587H12.7512V22.6667H15.4178ZM14.0845 12.992H17.1778V10.3253H14.0845V12.992ZM15.8445 11.6587V13.3227H18.5112V11.6587H15.8445ZM18.351 13.9562C18.5623 13.565 18.8017 13.2905 19.0882 13.1072C19.368 12.9283 19.7822 12.7787 20.4418 12.7787V10.112C19.3521 10.112 18.4223 10.3677 17.6514 10.8608C16.8873 11.3495 16.3694 12.0136 16.0046 12.6891L18.351 13.9562ZM20.4418 12.7787C21.4892 12.7787 22.0322 13.0431 22.3281 13.3477C22.6312 13.6597 22.9058 14.2507 22.9058 15.392H25.5725C25.5725 13.8666 25.2071 12.4843 24.2409 11.4896C23.2675 10.4876 21.9118 10.112 20.4418 10.112V12.7787ZM22.9058 15.392V22.6667H25.5725V15.392H22.9058Z" fill="white" mask="url(#path-2-inside-1_133_6243)"/>
</svg>
