<svg width="17" height="15" viewBox="0 0 17 15" fill="none" xmlns="http://www.w3.org/2000/svg">
<path d="M1.52527 3.83651C1.52527 2.98162 1.52527 2.55417 1.69164 2.22765C1.83798 1.94043 2.0715 1.70691 2.35872 1.56057C2.68525 1.3942 3.1127 1.3942 3.96759 1.3942H12.821C13.6759 1.3942 14.1034 1.3942 14.4299 1.56057C14.7171 1.70691 14.9506 1.94043 15.0969 2.22765C15.2633 2.55417 15.2633 2.98163 15.2633 3.83651V13.6058L12.7261 12.3372C12.5338 12.241 12.4376 12.1929 12.3368 12.159C12.2473 12.1289 12.1552 12.1072 12.0617 12.0941C11.9564 12.0793 11.8489 12.0793 11.6339 12.0793H3.96759C3.11269 12.0793 2.68525 12.0793 2.35872 11.913C2.0715 11.7666 1.83798 11.5331 1.69164 11.2459C1.52527 10.9194 1.52527 10.4919 1.52527 9.63702V3.83651Z" stroke="white" stroke-width="1.52645" stroke-linecap="round" stroke-linejoin="round"/>
</svg>
