<svg width="17" height="25" viewBox="0 0 17 25" fill="none" xmlns="http://www.w3.org/2000/svg">
<g clip-path="url(#clip0_133_30901)">
<path d="M8.39453 12.5C8.39453 10.3134 10.1671 8.54073 12.3538 8.54073C14.5404 8.54073 16.3131 10.3134 16.3131 12.5C16.3131 14.6867 14.5404 16.4593 12.3538 16.4593C10.1671 16.4593 8.39453 14.6867 8.39453 12.5Z" fill="#1ABCFE"/>
<path d="M0.476562 20.4186C0.476562 18.2319 2.24919 16.4593 4.43584 16.4593H8.39512V20.4186C8.39512 22.6052 6.62251 24.3778 4.43584 24.3778C2.24919 24.3778 0.476562 22.6052 0.476562 20.4186Z" fill="#0ACF83"/>
<path d="M8.39453 0.622192V8.54072H12.3538C14.5405 8.54072 16.3131 6.76811 16.3131 4.58147C16.3131 2.39482 14.5405 0.622192 12.3538 0.622192H8.39453Z" fill="#FF7262"/>
<path d="M0.476562 4.58147C0.476562 6.76811 2.24919 8.54072 4.43584 8.54072H8.39512V0.622192H4.43584C2.24919 0.622192 0.476562 2.39482 0.476562 4.58147Z" fill="#F24E1E"/>
<path d="M0.476562 12.5C0.476562 14.6867 2.24919 16.4593 4.43584 16.4593H8.39512V8.54073H4.43584C2.24919 8.54073 0.476562 10.3134 0.476562 12.5Z" fill="#A259FF"/>
</g>
<defs>
<clipPath id="clip0_133_30901">
<rect width="16" height="24" fill="white" transform="translate(0.394531 0.5)"/>
</clipPath>
</defs>
</svg>
